<?xml version="1.0" standalone="no"?>
<!DOCTYPE svg PUBLIC "-//W3C//DTD SVG 20010904//EN"
 "http://www.w3.org/TR/2001/REC-SVG-20010904/DTD/svg10.dtd">
<svg version="1.0" xmlns="http://www.w3.org/2000/svg"
 width="300.000000pt" height="120.000000pt" viewBox="0 0 300.000000 120.000000"
 preserveAspectRatio="xMidYMid meet">
<metadata>
Created by potrace 1.10, written by Peter Selinger 2001-2011
</metadata>
<g transform="translate(0.000000,120.000000) scale(0.050000,-0.050000)"
fill="#2c9c12" stroke="none">
<path d="M5270 2338 c-55 -10 -111 -19 -124 -21 -13 -2 -20 -10 -15 -18 5 -8
-5 -20 -21 -26 -17 -7 -24 -25 -18 -42 7 -17 3 -31 -8 -31 -11 0 -18 23 -15
50 6 55 -8 56 -289 15 -49 -7 -103 -14 -120 -16 -37 -5 -429 -64 -590 -89 -66
-10 -214 -32 -330 -49 -115 -17 -331 -48 -480 -69 -148 -22 -346 -49 -440 -61
-163 -21 -319 -45 -750 -112 -239 -38 -238 -37 -150 -111 l70 -59 -90 34 c-49
19 -100 47 -111 63 -19 24 -48 24 -210 -3 -447 -74 -702 -114 -898 -143 -244
-36 -227 -27 -190 -98 43 -83 35 -105 -17 -50 -26 26 -43 56 -38 65 5 9 -10 7
-34 -6 -34 -18 -42 -17 -42 8 0 91 -223 -44 -274 -165 -40 -95 -34 -150 105
-997 l10 -63 85 40 c46 23 87 43 91 47 8 7 -68 483 -108 682 -45 220 2 294
201 314 122 12 320 41 644 94 135 22 310 48 390 58 101 13 152 29 171 55 18
24 31 29 41 13 10 -15 49 -17 134 -4 66 10 152 22 190 28 146 20 186 33 158
50 -15 9 -20 24 -11 33 9 9 28 0 43 -20 24 -33 39 -34 142 -15 63 11 118 21
122 21 4 0 -8 22 -26 50 -19 29 -24 50 -11 50 12 0 17 14 10 30 -6 17 -1 30
11 30 12 0 22 -26 22 -58 0 -102 25 -105 361 -53 170 26 444 67 609 91 165 24
314 48 330 54 17 7 52 10 79 7 44 -4 46 -1 22 28 -24 28 -23 38 7 67 27 26 32
27 23 4 -25 -67 56 -82 269 -50 110 16 208 30 219 30 10 0 22 34 26 75 l8 75
4 -72 3 -71 221 35 c122 19 235 46 251 59 16 14 35 19 42 12 7 -7 1 -13 -14
-13 -15 0 -23 -4 -18 -9 5 -5 110 7 233 27 282 44 339 37 375 -45 22 -50 100
-561 134 -875 13 -124 -25 -148 -290 -184 -134 -18 -347 -53 -474 -76 -126
-24 -276 -45 -331 -46 -92 -2 -107 -9 -160 -76 -33 -41 -67 -75 -77 -75 -11
-1 2 21 28 49 70 74 42 80 -195 42 -451 -74 -559 -90 -685 -103 -71 -8 -148
-24 -170 -36 -51 -27 -90 -34 -90 -15 0 8 -164 -11 -365 -42 -201 -31 -419
-65 -485 -75 -66 -9 -259 -41 -430 -70 -342 -58 -552 -89 -605 -90 -20 -1 -40
-22 -47 -51 -7 -27 -20 -45 -29 -39 -10 6 -12 23 -6 40 15 38 -2 37 -349 -18
-190 -29 -292 -54 -304 -74 -15 -23 -23 -24 -43 -4 -14 14 -48 25 -77 25 -29
0 -64 11 -79 25 -22 20 -25 17 -16 -19 11 -46 -19 -55 -52 -16 -10 13 -20 11
-26 -5 -16 -38 -43 -30 -58 17 -9 29 -19 36 -34 21 -24 -24 24 -109 93 -167
87 -73 225 -68 772 27 127 22 257 43 290 47 216 29 235 34 245 72 11 45 45 51
45 8 0 -35 25 -37 154 -10 53 11 195 33 316 49 120 16 222 36 225 46 3 9 44
15 90 13 83 -3 504 54 611 83 69 18 132 28 243 40 49 6 96 21 104 33 10 18 22
17 45 -2 16 -14 37 -21 46 -16 9 5 156 29 326 52 171 23 351 51 400 61 50 11
162 29 250 42 88 12 264 39 390 60 127 21 271 43 320 48 687 70 731 128 622
831 -24 160 -52 340 -61 401 -37 255 -196 351 -491 297z m-2030 -1674 c0 -9
-8 -25 -18 -35 -10 -10 -22 -37 -28 -59 -6 -27 -10 -20 -12 22 -1 34 4 67 11
75 19 18 47 16 47 -3z"/>
<path d="M4612 1858 c-149 -22 -140 9 -91 -300 23 -148 47 -305 53 -349 l10
-82 111 15 c61 9 118 27 126 40 13 20 22 20 46 0 51 -42 113 39 113 147 0 49
-9 94 -19 100 -11 7 -15 24 -9 39 16 41 -46 172 -81 172 -17 0 -31 8 -31 18 0
10 16 16 35 15 48 -4 57 76 16 138 -34 52 -91 66 -92 24 0 -14 -9 -9 -21 10
-11 19 -26 34 -34 33 -8 -2 -67 -11 -132 -20z m128 -138 c0 -11 14 -20 30 -20
17 0 30 -10 30 -21 0 -12 -10 -15 -23 -7 -17 11 -19 -18 -7 -114 30 -239 4
-358 -63 -291 -9 8 -5 22 8 30 18 11 17 59 -5 204 -36 236 -36 239 0 239 17 0
30 -9 30 -20z"/>
<path d="M4220 1806 c-121 -11 -121 -11 -90 -216 16 -99 39 -255 52 -346 l24
-166 72 6 c59 5 71 13 65 46 -5 32 -1 35 19 15 62 -60 151 -31 142 47 -8 69
-11 71 -73 60 -98 -19 -142 120 -50 155 45 16 59 35 59 74 0 67 -16 82 -63 57
-31 -16 -41 -10 -58 35 -28 72 -11 107 52 107 46 0 51 7 45 65 -7 72 -22 76
-196 61z"/>
<path d="M3906 1766 c-50 -10 -54 -20 -87 -224 -16 -98 -29 -138 -41 -120 -14
23 -18 23 -18 -2 -1 -37 -80 133 -80 172 0 15 -8 28 -18 28 -9 0 -22 19 -28
43 -8 29 -22 38 -44 30 -18 -7 -51 -13 -72 -13 -46 0 -53 -76 -8 -93 33 -13
40 -88 11 -118 -17 -18 40 -477 63 -500 45 -44 139 21 128 89 -36 219 -37 234
-5 195 17 -21 46 -80 65 -133 38 -105 88 -117 88 -21 0 95 25 241 41 241 8 0
21 -63 29 -140 l14 -140 67 0 c37 0 71 7 76 15 9 14 -41 425 -58 480 -4 14 -6
29 -3 34 2 5 -13 22 -34 37 -26 19 -31 32 -15 42 31 19 29 113 -2 109 -14 -1
-45 -6 -69 -11z"/>
<path d="M3120 1642 l-130 -12 5 -80 c3 -44 11 -93 18 -110 7 -16 11 -48 9
-70 -2 -23 10 -126 27 -230 17 -105 31 -197 31 -206 0 -9 38 -14 85 -10 96 7
94 2 65 221 -13 97 -11 115 15 115 34 0 46 -36 66 -206 19 -158 67 -151 109
16 16 66 37 125 46 132 9 7 -13 36 -50 65 -36 30 -77 63 -91 74 -14 11 -25 31
-25 43 0 12 18 6 40 -14 22 -20 46 -30 53 -23 24 23 15 200 -10 209 -12 4 -23
19 -23 32 0 21 -92 80 -106 69 -2 -2 -62 -9 -134 -15z m128 -154 c19 -48 14
-104 -9 -119 -29 -18 -33 -11 -49 76 -15 79 31 113 58 43z"/>
<path d="M2775 1586 c-46 -7 -53 -16 -44 -53 6 -25 31 -179 55 -344 l44 -299
75 -6 c112 -9 112 3 4 651 -11 67 -15 69 -134 51z"/>
<path d="M2573 1565 c-35 -5 -61 -23 -68 -47 -11 -45 -45 -51 -45 -8 0 30 -71
43 -85 15 -5 -8 15 -168 43 -355 l52 -340 70 -5 c116 -9 124 7 93 171 l-27
144 46 0 c57 0 75 28 60 91 -10 38 -26 49 -72 49 -51 0 -60 8 -60 50 0 28 -2
57 -4 65 -2 8 23 20 55 25 33 6 58 22 57 35 -1 14 -3 48 -5 75 -2 28 -14 49
-28 47 -14 -2 -51 -7 -82 -12z"/>
<path d="M2203 1504 c-66 -7 -67 -9 -55 -80 36 -212 37 -237 7 -237 -17 0 -30
18 -30 43 0 101 -94 240 -157 233 -72 -8 -93 -27 -77 -70 17 -43 53 -43 45 0
-9 48 30 54 58 9 20 -31 17 -46 -13 -81 -27 -31 -40 -36 -49 -17 -15 32 2
-177 32 -399 21 -159 24 -165 74 -165 92 1 114 28 86 105 -60 167 -27 215 47
70 60 -117 77 -135 124 -135 97 1 105 17 76 160 -15 72 -38 225 -52 340 -28
238 -26 233 -116 224z m27 -397 c28 -22 32 -34 15 -41 -35 -13 -31 -66 5 -66
17 0 30 8 30 17 0 9 14 16 31 16 18 0 26 -11 20 -28 -6 -16 -11 -32 -11 -37 0
-4 -18 -8 -40 -8 -22 0 -40 -9 -40 -20 0 -11 -10 -20 -22 -20 -12 0 -18 12
-12 28 6 15 4 35 -5 45 -22 24 -43 147 -25 146 7 0 32 -15 54 -32z"/>
<path d="M1488 1352 c-55 -55 -68 -83 -68 -150 0 -91 17 -103 57 -40 15 25 34
35 44 25 20 -20 2 -111 -19 -98 -45 28 -64 -28 -48 -141 16 -106 22 -118 62
-113 38 4 41 0 20 -23 -14 -15 -33 -24 -41 -19 -40 24 -9 -35 38 -72 116 -91
347 -23 347 102 0 11 -10 13 -23 5 -23 -14 -21 9 14 152 10 38 7 43 -8 21 -23
-32 -26 -27 -49 69 -5 22 -16 58 -24 80 -11 33 -6 31 29 -10 l42 -50 -9 50
c-5 28 -15 83 -22 124 -26 163 -218 212 -342 88z m159 -82 c6 -16 22 -108 34
-205 13 -96 33 -187 44 -201 27 -32 -10 -74 -51 -58 -27 10 -100 443 -80 479
14 25 41 17 53 -15z m-63 -320 c12 -28 17 -56 10 -63 -19 -18 -68 27 -80 74
-15 58 42 49 70 -11z"/>
<path d="M982 1288 c-51 -43 -62 -66 -61 -135 1 -117 54 -401 76 -409 10 -3
14 -22 9 -43 -21 -80 236 -150 266 -72 6 16 23 24 38 18 45 -17 91 78 87 180
-3 91 -21 116 -48 71 -10 -16 -18 -15 -29 3 -36 57 -117 5 -101 -66 17 -77 8
-115 -29 -115 -43 0 -114 483 -74 508 28 17 49 -20 63 -107 17 -104 181 -123
181 -22 0 214 -219 323 -378 189z"/>
<path d="M3440 1040 c0 -22 -1 -47 -1 -54 -1 -8 8 -18 20 -22 12 -4 21 19 21
54 0 34 -9 62 -20 62 -11 0 -20 -18 -20 -40z"/>
</g>
</svg>
