<?xml version="1.0" standalone="no"?>
<!DOCTYPE svg PUBLIC "-//W3C//DTD SVG 20010904//EN"
 "http://www.w3.org/TR/2001/REC-SVG-20010904/DTD/svg10.dtd">
<svg version="1.0" xmlns="http://www.w3.org/2000/svg"
 width="300.000000pt" height="119.000000pt" viewBox="0 0 300.000000 119.000000"
 preserveAspectRatio="xMidYMid meet">
<metadata>
Created by potrace 1.10, written by Peter Selinger 2001-2011
</metadata>
<g transform="translate(0.000000,119.000000) scale(0.050000,-0.050000)"
fill="#ec0606" stroke="none">
<path d="M60 2170 l0 -130 2945 0 2945 0 -3 125 -4 125 -2941 5 -2942 5 0
-130z"/>
<path d="M270 1901 c-22 -9 -62 -41 -90 -70 l-50 -54 -6 -537 c-9 -727 10
-780 280 -780 231 0 276 57 276 350 l0 192 -102 -6 -103 -6 -2 -170 c-3 -167
-4 -170 -53 -170 l-50 0 0 540 c0 512 2 540 38 547 56 11 73 -33 69 -177 l-4
-130 103 -6 104 -6 0 170 c0 199 -22 259 -111 301 -69 33 -232 39 -299 12z"/>
<path d="M948 1897 c-4 -7 -21 -106 -37 -220 -16 -114 -62 -422 -100 -685 -39
-264 -71 -491 -71 -505 0 -19 31 -27 108 -27 l107 0 14 110 14 110 86 0 86 0
14 -110 14 -110 121 0 c115 0 120 2 109 45 -6 25 -48 311 -92 635 -45 325 -89
629 -97 677 l-14 87 -127 3 c-70 2 -130 -3 -135 -10z m160 -763 c8 -129 19
-248 25 -265 9 -22 -6 -29 -63 -29 -68 0 -74 4 -62 45 7 25 17 144 24 265 19
372 54 365 76 -16z"/>
<path d="M1500 1185 l0 -725 103 0 102 0 -9 440 c-9 449 -1 503 42 290 14 -66
57 -258 97 -426 l73 -306 107 6 107 6 0 719 0 719 -93 1 -94 2 9 -445 c9 -462
-4 -550 -43 -301 -13 80 -48 278 -77 442 l-54 296 -135 4 -135 3 0 -725z"/>
<path d="M2380 1885 c-116 -59 -119 -76 -120 -710 l0 -574 58 -65 c54 -60 69
-66 205 -72 236 -12 297 65 297 381 l0 155 -109 0 -109 0 -6 -175 c-6 -165 -9
-175 -51 -181 l-46 -7 6 547 c5 531 6 546 45 546 36 0 41 -15 46 -155 l6 -155
109 0 109 0 0 135 c0 322 -183 459 -440 330z"/>
<path d="M2940 1184 l0 -725 242 5 242 6 4 95 4 95 -137 0 -136 0 5 225 6 225
75 -7 75 -6 0 101 0 102 -80 0 -80 0 0 210 0 210 131 0 131 0 -6 91 -6 91
-235 4 -235 4 0 -726z"/>
<path d="M3540 1184 l0 -725 245 5 245 6 6 95 6 95 -142 0 -143 0 5 623 4 624
-113 1 -113 2 0 -726z"/>
<path d="M4128 1902 c-4 -5 -8 -331 -8 -725 l0 -717 250 0 250 0 0 100 0 100
-130 0 -129 0 -6 622 -5 623 -107 2 c-58 2 -110 -1 -115 -5z"/>
<path d="M4706 1887 c-5 -13 -6 -337 -2 -720 l6 -697 245 -6 245 -5 0 100 0
101 -130 0 -130 0 0 228 0 228 80 -11 80 -10 0 102 0 103 -80 0 -80 0 0 210 0
210 131 0 131 0 -6 91 -6 92 -238 3 c-164 3 -240 -3 -246 -19z"/>
<path d="M5306 1888 c-4 -12 -5 -336 -2 -720 l6 -698 190 0 c380 1 380 1 380
708 0 572 -7 619 -93 676 -66 44 -466 72 -481 34z m342 -200 c7 -17 12 -241
12 -498 0 -512 -2 -530 -72 -530 l-48 0 0 530 0 530 48 0 c26 0 53 -14 60 -32z"/>
<path d="M60 210 l0 -130 2942 5 2941 5 4 125 3 125 -2945 0 -2945 0 0 -130z"/>
</g>
</svg>
